<svg xmlns="http://www.w3.org/2000/svg" viewBox="0 0 47 47"><defs><style>.a{fill:#1aadf5;}.b{fill:#fff;}</style></defs><g transform="translate(-673 -478)"><rect class="a" width="47" height="47" transform="translate(673 478)"/><path class="b" d="M24.335,2.34a9.95,9.95,0,0,1-2.869.785,4.993,4.993,0,0,0,2.2-2.762,9.988,9.988,0,0,1-3.169,1.212,5,5,0,0,0-8.507,4.556A14.173,14.173,0,0,1,1.695.915,4.995,4.995,0,0,0,3.24,7.577,4.974,4.974,0,0,1,.978,6.952v.064a5,5,0,0,0,4,4.9A4.965,4.965,0,0,1,2.727,12a5,5,0,0,0,4.663,3.469,10.011,10.011,0,0,1-6.2,2.137A10.2,10.2,0,0,1,0,17.531a14.135,14.135,0,0,0,7.654,2.241,14.108,14.108,0,0,0,14.2-14.2c0-.216-.005-.432-.013-.645A10.152,10.152,0,0,0,24.335,2.34Z" transform="translate(685.717 492.019)"/></g></svg>