<svg xmlns="http://www.w3.org/2000/svg" viewBox="0 0 47 47"><defs><style>.a{fill:#853dd9;}.b{fill:#ffeed7;}</style></defs><g transform="translate(-807 -478)"><rect class="a" width="47" height="47" transform="translate(807 478)"/><path class="b" d="M22.831,4.906l-2.683.9c-.4.176-1.485,1.435-3.369,3.862-2,2.515-3.027,4.128-3.2,4.94l-.113,2.244L13.411,18.2l.231,3.413,3.537.089-.058,1.708H11.359L6.222,23.5l.171-1.616,1.655-.092c.857-.089,1.372-.271,1.54-.539a13.331,13.331,0,0,0,.171-3.145V16.94L9.7,14.607a45.744,45.744,0,0,0-2.8-5.928,53.871,53.871,0,0,0-3.6-6.288L0,1.671V.145C.171-.034,2-.034,5.365.055a39.923,39.923,0,0,1,5.82.089L11.072,1.4l-3.481.541c1.085,2.512,2.741,6.014,4.966,10.416,2.911-3.5,4.454-5.749,4.509-6.734L14.1,4.906l-.231-1.619h4.966l4.68.089Z" transform="translate(818.988 490.974)"/></g></svg>