<svg xmlns="http://www.w3.org/2000/svg" width="20.932" height="20.932" viewBox="0 0 20.932 20.932"><g transform="translate(-115.3 -120.2)"><circle cx="9.966" cy="9.966" r="9.966" transform="translate(115.8 120.7)" stroke="#fff" stroke-width="1"/><circle cx="3.359" cy="3.359" r="3.359" transform="translate(122.407 124.836)" fill="#fff"/><path d="M282.717,629.9a8.441,8.441,0,0,0-5.788,2.289,1.171,1.171,0,0,0-.007,1.806,8.466,8.466,0,0,0,12.42-.9A8.45,8.45,0,0,0,282.717,629.9Z" transform="translate(-156.951 -497.321)" fill="#fff"/><path d="M283.225,629.9a8.442,8.442,0,0,1,5.788,2.289,1.171,1.171,0,0,1,.007,1.806,8.466,8.466,0,0,1-12.42-.9A8.449,8.449,0,0,1,283.225,629.9Z" transform="translate(-157.049 -497.321)" fill="#fff"/></g></svg>